#!OML:ASF H:\Dans Jumps\Project 1\Capture day 1\Session 1\subject.ASF
:FULLY-SPECIFIED
:DEGREES
341
root 0.718033 18.9812 -8.64862 10.2929 0.83761 -1.5467
lowerback 3.10227 0.484602 -1.07553
upperback 2.85689 0.610823 1.97469
thorax 1.15957 0.268963 2.61795
lowerneck -11.3661 -0.755484 -2.29115
upperneck 24.3074 -0.542832 -0.0294744
head 9.5483 -0.457894 0.317674
rclavicle -1.39149e-015 -6.36111e-015
rhumerus -3.79995 -2.64943 -83.5974
rradius 30.4875
rwrist 26.9586
rhand -22.5201 -21.9817
rfingers 7.12502
rthumb 3.90649 -51.9256
lclavicle -1.39149e-015 -6.36111e-015
lhumerus 2.69214 -11.3907 85.9369
lradius 28.756
lwrist 23.0119
lhand -29.9805 -10.8272
lfingers 7.12502
lthumb -3.29862 19.127
rfemur -15.9336 -2.80062 19.3083
rtibia 44.3768
rfoot 13.4309 -8.68748
rtoes 10.4113
lfemur -13.1273 4.23328 -16.4771
ltibia 36.8454
lfoot 22.9343 -0.544031
ltoes -14.1264
342
root 0.719778 19.2006 -8.45264 9.99433 0.95131 -1.42645
lowerback 2.60637 0.446828 -1.22418
upperback 2.87671 0.559294 1.95567
thorax 1.45924 0.237624 2.68739
lowerneck -11.1372 -0.767278 -2.40363
upperneck 24.8207 -0.557631 0.0485455
head 9.68766 -0.469822 0.362861
rclavicle -1.98785e-015 -1.59028e-015
rhumerus -3.51764 -2.77311 -83.902
rradius 29.9419
rwrist 27.4145
rhand -22.3312 -22.0044
rfingers 7.12502
rthumb 4.08891 -51.9449
lclavicle -1.98785e-015 -1.59028e-015
lhumerus 3.06238 -11.2794 86.3611
lradius 28.8097
lwrist 23.4737
lhand -30.0312 -11.1165
lfingers 7.12502
lthumb -3.34761 18.837
rfemur -16.117 -2.73233 19.174
rtibia 44.8095
rfoot 14.1086 -8.38915
rtoes 13.1015
lfemur -12.9804 3.80795 -16.5457
ltibia 36.83
lfoot 25.9454 0.54292
ltoes -10.275
343
root 0.719872 19.4086 -8.26523 9.78366 1.10247 -1.30402
lowerback 2.17072 0.397188 -1.38841
upperback 2.87841 0.493472 1.93768
thorax 1.70784 0.199128 2.76563
lowerneck -10.9774 -0.774871 -2.49144
upperneck 25.2692 -0.571891 0.129757
head 9.81794 -0.478635 0.405102
rclavicle 1.98785e-016 3.97569e-015
rhumerus -3.23936 -3.04183 -84.2352
rradius 29.3785
rwrist 27.8452
rhand -22.1713 -22.0364
rfingers 7.12502
rthumb 4.24336 -51.9739
lclavicle 1.98785e-016 3.97569e-015
lhumerus 3.40624 -11.2126 86.7759
lradius 28.8514
lwrist 23.9035
lhand -30.0991 -11.3628
lfingers 7.12502
lthumb -3.41319 18.5897
rfemur -16.5435 -2.68643 19.0765
rtibia 45.4002
rfoot 14.2615 -7.90911
rtoes 14.6422
lfemur -13.2329 3.62601 -16.6489
ltibia 37.3892
lfoot 27.727 1.76384
ltoes -7.03655
344
root 0.718862 19.6046 -8.08684 9.62978 1.29886 -1.18976
lowerback 1.83262 0.336726 -1.54202
upperback 2.86858 0.414376 1.91903
thorax 1.89135 0.154739 2.8358
lowerneck -10.875 -0.783163 -2.56182
upperneck 25.6544 -0.592562 0.22021
head 9.9374 -0.487379 0.446929
rclavicle -2.98177e-016 1.59028e-015
rhumerus -2.96556 -3.46179 -84.5994
rradius 28.8058
rwrist 28.2463
rhand -22.0658 -22.0891
rfingers 7.12502
rthumb 4.34522 -52.0245
lclavicle -2.98177e-016 1.59028e-015
lhumerus 3.7328 -11.2207 87.172
lradius 28.8634
lwrist 24.2372
lhand -30.1501 -11.5867
lfingers 7.12502
lthumb -3.46243 18.3649
rfemur -17.1529 -2.65842 19.0196
rtibia 46.0646
rfoot 14.2206 -7.40349
rtoes 15.4618
lfemur -13.8285 3.61934 -16.7642
ltibia 38.4563
lfoot 28.4177 2.83651
ltoes -4.64808
345
root 0.717682 19.7888 -7.91638 9.4776 1.53553 -1.08137
lowerback 1.62534 0.268387 -1.67423
upperback 2.8663 0.324872 1.89756
thorax 2.01048 0.106121 2.88956
lowerneck -10.8037 -0.792958 -2.61977
upperneck 25.9711 -0.619628 0.317046
head 10.0389 -0.496673 0.488216
rclavicle 1.78906e-015 -1.51076e-014
rhumerus -2.70024 -4.0042 -84.986
rradius 28.235
rwrist 28.629
rhand -22.0498 -22.1332
rfingers 7.12502
rthumb 4.36066 -52.0683
lclavicle 1.78906e-015 -1.51076e-014
lhumerus 4.05805 -11.2971 87.5513
lradius 28.8204
lwrist 24.4062
lhand -30.1669 -11.708
lfingers 7.12502
lthumb -3.47861 18.2433
rfemur -17.8457 -2.65035 18.9867
rtibia 46.7147
rfoot 14.2614 -6.96613
rtoes 16.1882
lfemur -14.6584 3.70671 -16.8877
ltibia 39.9171
lfoot 28.3216 3.56244
ltoes -3.14796
346
root 0.716744 19.9612 -7.75342 9.2943 1.82974 -0.994259
lowerback 1.57112 0.18949 -1.76204
upperback 2.87981 0.220303 1.8806
thorax 2.06136 0.0514558 2.92177
lowerneck -10.7588 -0.80566 -2.66346
upperneck 26.233 -0.65201 0.407484
head 10.1261 -0.507296 0.524252
rclavicle -1.59028e-015 -4.37326e-015
rhumerus -2.45395 -4.63858 -85.3799
rradius 27.6823
rwrist 29.0261
rhand -22.1196 -22.1513
rfingers 7.12502
rthumb 4.29327 -52.0878
lclavicle -1.59028e-015 -4.37326e-015
lhumerus 4.38724 -11.4392 87.9182
lradius 28.7129
lwrist 24.3685
lhand -30.1436 -11.7207
lfingers 7.12502
lthumb -3.45611 18.2311
rfemur -18.5433 -2.68286 18.9902
rtibia 47.2651
rfoot 14.4133 -6.65256
rtoes 16.879
lfemur -15.6469 3.80733 -16.995
ltibia 41.6463
lfoot 27.8359 3.85385
ltoes -2.27718
